<svg width="103" height="88" viewBox="0 0 103 88" fill="none" xmlns="http://www.w3.org/2000/svg">
<path d="M102.669 4.69816V24.3236C102.669 25.3646 102.256 26.363 101.52 27.0991C100.784 27.8352 99.7852 28.2487 98.7442 28.2487C97.7032 28.2487 96.7048 27.8352 95.9687 27.0991C95.2326 26.363 94.8191 25.3646 94.8191 24.3236V8.62325H79.1187C78.0777 8.62325 77.0794 8.20971 76.3433 7.47362C75.6072 6.73752 75.1936 5.73916 75.1936 4.69816C75.1936 3.65716 75.6072 2.6588 76.3433 1.9227C77.0794 1.18661 78.0777 0.773071 79.1187 0.773071H98.7442C99.7852 0.773071 100.784 1.18661 101.52 1.9227C102.256 2.6588 102.669 3.65716 102.669 4.69816ZM24.1675 79.2748H8.46712V63.5745C8.46712 62.5335 8.05359 61.5351 7.31749 60.799C6.58139 60.0629 5.58303 59.6494 4.54203 59.6494C3.50103 59.6494 2.50267 60.0629 1.76657 60.799C1.03048 61.5351 0.616943 62.5335 0.616943 63.5745V83.1999C0.616943 84.2409 1.03048 85.2393 1.76657 85.9754C2.50267 86.7115 3.50103 87.125 4.54203 87.125H24.1675C25.2085 87.125 26.2068 86.7115 26.9429 85.9754C27.679 85.2393 28.0926 84.2409 28.0926 83.1999C28.0926 82.1589 27.679 81.1606 26.9429 80.4245C26.2068 79.6884 25.2085 79.2748 24.1675 79.2748ZM98.7442 59.6494C97.7032 59.6494 96.7048 60.0629 95.9687 60.799C95.2326 61.5351 94.8191 62.5335 94.8191 63.5745V79.2748H79.1187C78.0777 79.2748 77.0794 79.6884 76.3433 80.4245C75.6072 81.1606 75.1936 82.1589 75.1936 83.1999C75.1936 84.2409 75.6072 85.2393 76.3433 85.9754C77.0794 86.7115 78.0777 87.125 79.1187 87.125H98.7442C99.7852 87.125 100.784 86.7115 101.52 85.9754C102.256 85.2393 102.669 84.2409 102.669 83.1999V63.5745C102.669 62.5335 102.256 61.5351 101.52 60.799C100.784 60.0629 99.7852 59.6494 98.7442 59.6494ZM4.54203 28.2487C5.58303 28.2487 6.58139 27.8352 7.31749 27.0991C8.05359 26.363 8.46712 25.3646 8.46712 24.3236V8.62325H24.1675C25.2085 8.62325 26.2068 8.20971 26.9429 7.47362C27.679 6.73752 28.0926 5.73916 28.0926 4.69816C28.0926 3.65716 27.679 2.6588 26.9429 1.9227C26.2068 1.18661 25.2085 0.773071 24.1675 0.773071H4.54203C3.50103 0.773071 2.50267 1.18661 1.76657 1.9227C1.03048 2.6588 0.616943 3.65716 0.616943 4.69816V24.3236C0.616943 25.3646 1.03048 26.363 1.76657 27.0991C2.50267 27.8352 3.50103 28.2487 4.54203 28.2487ZM28.0926 20.3985C27.0516 20.3985 26.0532 20.812 25.3171 21.5481C24.581 22.2842 24.1675 23.2826 24.1675 24.3236V63.5745C24.1675 64.6155 24.581 65.6139 25.3171 66.35C26.0532 67.086 27.0516 67.4996 28.0926 67.4996C29.1336 67.4996 30.1319 67.086 30.868 66.35C31.6041 65.6139 32.0177 64.6155 32.0177 63.5745V24.3236C32.0177 23.2826 31.6041 22.2842 30.868 21.5481C30.1319 20.812 29.1336 20.3985 28.0926 20.3985ZM79.1187 63.5745V24.3236C79.1187 23.2826 78.7052 22.2842 77.9691 21.5481C77.233 20.812 76.2346 20.3985 75.1936 20.3985C74.1526 20.3985 73.1543 20.812 72.4182 21.5481C71.6821 22.2842 71.2685 23.2826 71.2685 24.3236V63.5745C71.2685 64.6155 71.6821 65.6139 72.4182 66.35C73.1543 67.086 74.1526 67.4996 75.1936 67.4996C76.2346 67.4996 77.233 67.086 77.9691 66.35C78.7052 65.6139 79.1187 64.6155 79.1187 63.5745ZM59.4933 20.3985C58.4523 20.3985 57.4539 20.812 56.7178 21.5481C55.9817 22.2842 55.5682 23.2826 55.5682 24.3236V63.5745C55.5682 64.6155 55.9817 65.6139 56.7178 66.35C57.4539 67.086 58.4523 67.4996 59.4933 67.4996C60.5343 67.4996 61.5326 67.086 62.2687 66.35C63.0048 65.6139 63.4184 64.6155 63.4184 63.5745V24.3236C63.4184 23.2826 63.0048 22.2842 62.2687 21.5481C61.5326 20.812 60.5343 20.3985 59.4933 20.3985ZM43.7929 20.3985C42.7519 20.3985 41.7536 20.812 41.0175 21.5481C40.2814 22.2842 39.8678 23.2826 39.8678 24.3236V63.5745C39.8678 64.6155 40.2814 65.6139 41.0175 66.35C41.7536 67.086 42.7519 67.4996 43.7929 67.4996C44.8339 67.4996 45.8323 67.086 46.5684 66.35C47.3045 65.6139 47.718 64.6155 47.718 63.5745V24.3236C47.718 23.2826 47.3045 22.2842 46.5684 21.5481C45.8323 20.812 44.8339 20.3985 43.7929 20.3985Z" fill="#DDEAF5"/>
</svg>
