<svg width="61" height="61" viewBox="0 0 61 61" fill="none" xmlns="http://www.w3.org/2000/svg">
<path fill-rule="evenodd" clip-rule="evenodd" d="M43.6552 39.3178L60.0194 55.682C60.5945 56.2575 60.9175 57.038 60.9172 57.8517C60.9169 58.6655 60.5934 59.4457 60.0178 60.0209C59.4423 60.5961 58.6618 60.9191 57.8481 60.9188C57.0343 60.9185 56.2541 60.595 55.6789 60.0194L39.3147 43.6552C34.4229 47.4441 28.2713 49.2272 22.1115 48.6416C15.9516 48.056 10.2462 45.1457 6.15595 40.5029C2.06567 35.86 -0.102252 29.8333 0.0932102 23.6488C0.288672 17.4643 2.83284 11.5865 7.20814 7.21119C11.5834 2.83589 17.4612 0.291731 23.6457 0.0962696C29.8302 -0.0991922 35.8569 2.06873 40.4998 6.15901C45.1427 10.2493 48.0529 15.9547 48.6385 22.1145C49.2241 28.2743 47.4411 34.4259 43.6521 39.3178H43.6552ZM24.4167 42.6667C29.2569 42.6667 33.8988 40.7439 37.3214 37.3214C40.7439 33.8988 42.6667 29.2569 42.6667 24.4167C42.6667 19.5765 40.7439 14.9345 37.3214 11.512C33.8988 8.08943 29.2569 6.16667 24.4167 6.16667C19.5765 6.16667 14.9345 8.08943 11.512 11.512C8.08942 14.9345 6.16665 19.5765 6.16665 24.4167C6.16665 29.2569 8.08942 33.8988 11.512 37.3214C14.9345 40.7439 19.5765 42.6667 24.4167 42.6667Z" fill="#003B73"/>
</svg>
